<?xml version="1.0" standalone="no"?>
<!DOCTYPE svg PUBLIC "-//W3C//DTD SVG 20010904//EN"
 "http://www.w3.org/TR/2001/REC-SVG-20010904/DTD/svg10.dtd">
<svg version="1.0" xmlns="http://www.w3.org/2000/svg"
 width="1300.000000pt" height="567.000000pt" viewBox="0 0 1300.000000 567.000000"
 preserveAspectRatio="xMidYMid meet">

<g transform="translate(0.000000,567.000000) scale(0.100000,-0.100000)"
fill="#000000" stroke="none">
<path d="M896 4218 c-30 -42 -22 -59 115 -266 l89 -133 2 -77 c0 -42 2 -105 2
-138 1 -77 21 -104 77 -104 60 0 68 21 70 177 l1 132 109 163 c116 174 133
216 104 248 -21 23 -73 27 -97 8 -8 -7 -52 -73 -98 -145 -45 -73 -85 -133 -89
-133 -3 0 -19 23 -36 50 -16 28 -57 92 -90 143 -58 90 -61 92 -102 95 -33 2
-44 -1 -57 -20z"/>
<path d="M2223 4221 c-142 -53 -215 -169 -216 -347 -1 -125 29 -210 98 -280
70 -71 141 -97 260 -97 174 0 281 73 336 229 18 49 20 76 17 164 -3 93 -7 112
-36 172 -36 75 -72 110 -152 147 -76 35 -229 41 -307 12z m238 -128 c40 -21
54 -37 77 -82 23 -49 27 -68 27 -146 -1 -77 -5 -97 -27 -140 -57 -108 -192
-144 -287 -76 -17 12 -43 43 -58 69 -26 43 -28 55 -28 152 0 111 8 135 58 192
55 63 156 76 238 31z"/>
<path d="M3260 4222 c-21 -17 -21 -22 -20 -251 1 -290 10 -340 77 -403 39 -37
96 -59 178 -68 122 -14 229 14 286 77 57 61 62 82 71 313 10 240 6 304 -18
331 -24 27 -85 25 -110 -2 -17 -19 -19 -43 -24 -269 -5 -232 -6 -250 -26 -277
-30 -40 -61 -53 -129 -53 -66 0 -114 22 -137 62 -9 17 -14 92 -18 269 -5 225
-7 249 -24 268 -24 26 -75 28 -106 3z"/>
<path d="M5847 4229 c-9 -5 -26 -27 -36 -47 -34 -68 -241 -602 -241 -622 0
-27 43 -70 70 -70 33 0 64 39 95 118 l28 72 144 0 144 0 15 -37 c57 -145 80
-168 139 -140 59 28 57 46 -33 271 -190 473 -186 466 -265 466 -23 0 -50 -5
-60 -11z m112 -296 c22 -59 42 -116 46 -125 7 -17 -2 -18 -100 -18 -59 0 -105
3 -103 8 2 4 25 67 52 141 34 92 52 128 58 118 4 -8 25 -64 47 -124z"/>
<path d="M7986 4224 c-9 -8 -18 -25 -21 -37 -3 -12 -5 -162 -3 -333 3 -290 4
-313 22 -333 24 -26 87 -29 107 -5 10 12 15 60 19 161 l5 144 158 2 157 2 0
-135 c0 -153 9 -183 54 -188 48 -6 73 6 85 39 7 21 11 143 11 345 0 301 -1
315 -20 334 -24 24 -77 27 -106 6 -17 -13 -19 -29 -22 -145 l-4 -131 -159 0
-159 0 0 123 c0 146 -9 167 -70 167 -22 0 -45 -7 -54 -16z"/>
<path d="M4443 4204 l-25 -25 4 -321 4 -321 28 -24 c31 -26 67 -23 101 8 18
17 20 33 20 152 l0 132 30 5 c83 15 132 -25 226 -184 50 -84 71 -112 96 -122
48 -20 103 7 103 51 0 39 -72 165 -127 223 -29 31 -53 57 -53 58 0 1 12 4 28
7 46 9 96 50 120 97 57 114 -2 245 -127 280 -20 5 -118 10 -219 10 l-183 0
-26 -26z m380 -107 c55 -36 57 -112 4 -150 -22 -17 -47 -21 -137 -25 -89 -4
-110 -2 -110 9 -1 8 -3 53 -6 101 l-5 87 113 -2 c91 -2 120 -6 141 -20z"/>
<path d="M6814 4221 c-12 -5 -25 -18 -29 -28 -8 -20 -7 -627 2 -649 11 -29 46
-35 206 -35 140 0 170 2 217 20 64 24 96 50 133 106 45 69 58 121 58 236 0
126 -21 193 -81 262 -70 79 -107 90 -310 94 -96 1 -184 -1 -196 -6z m341 -136
c75 -37 103 -117 93 -265 -5 -68 -20 -101 -69 -159 -19 -23 -28 -25 -135 -29
l-114 -5 0 243 0 242 93 -4 c64 -3 104 -10 132 -23z"/>
<path d="M9199 4211 l-24 -19 0 -322 0 -322 24 -19 c21 -18 42 -19 267 -19
240 0 243 0 258 22 22 31 20 45 -9 73 -24 25 -26 25 -210 25 l-186 0 3 98 3
97 170 3 c159 2 171 3 188 23 22 27 22 44 -3 69 -18 18 -33 20 -190 20 l-170
0 0 85 0 85 183 0 c149 0 187 3 205 16 28 19 29 57 2 84 -19 19 -33 20 -254
20 -215 0 -236 -2 -257 -19z"/>
<path d="M10372 4220 c-40 -17 -43 -48 -40 -371 3 -285 4 -308 22 -328 13 -14
31 -21 57 -21 61 0 69 20 69 183 l0 139 58 -7 c35 -4 68 -15 87 -30 17 -12 65
-79 108 -148 62 -101 83 -127 108 -136 41 -14 80 3 93 41 14 40 -49 159 -121
231 l-55 55 63 33 c71 38 96 71 105 140 13 92 -31 170 -116 208 -40 18 -66 21
-230 20 -102 0 -195 -4 -208 -9z m381 -140 c24 -27 28 -39 23 -69 -6 -41 -43
-76 -89 -85 -16 -3 -69 -6 -118 -6 l-89 0 0 101 0 102 122 -5 122 -5 29 -33z"/>
<path d="M11574 4220 c-41 -16 -47 -66 -41 -304 4 -122 7 -254 7 -293 0 -117
-9 -113 283 -113 224 0 245 2 260 18 23 25 21 58 -3 82 -19 19 -33 20 -205 20
l-185 0 0 100 0 100 175 0 c162 0 175 1 185 19 15 29 12 56 -8 74 -16 14 -44
17 -185 17 l-167 0 0 85 0 85 180 0 c167 0 181 1 200 20 27 27 26 65 -2 84
-19 13 -59 16 -248 15 -124 0 -235 -4 -246 -9z"/>
<path d="M804 3323 c2 -10 12 -62 21 -116 20 -125 46 -242 95 -437 21 -85 51
-229 65 -318 26 -161 26 -168 15 -380 -18 -357 -38 -671 -44 -681 -4 -5 -3
-16 0 -25 8 -22 99 -21 150 0 34 15 37 18 19 25 -11 4 -30 8 -42 8 -13 1 -23
4 -23 9 0 9 97 623 106 669 12 66 30 36 47 -79 9 -62 32 -210 52 -328 41 -252
42 -270 17 -270 -10 0 -26 -6 -36 -13 -18 -13 -18 -14 0 -21 10 -4 52 -10 93
-13 l74 -6 -6 39 c-4 21 -14 172 -22 334 -9 162 -20 354 -24 425 -8 122 -7
142 24 330 18 110 44 241 58 290 36 128 117 518 117 562 0 11 -12 13 -52 11
l-52 -3 -17 -75 c-9 -41 -26 -109 -39 -150 -12 -41 -26 -91 -31 -110 -36 -126
-51 -161 -79 -175 -42 -22 -45 -19 -16 16 49 58 35 193 -25 244 -51 43 -122
30 -158 -28 -42 -69 -40 -175 6 -221 30 -30 26 -32 -20 -10 -30 14 -36 25 -65
117 -17 56 -49 168 -69 250 l-37 147 -54 0 c-46 0 -53 -2 -48 -17z"/>
<path d="M1990 3313 c0 -39 75 -401 115 -556 18 -73 46 -208 60 -302 l27 -170
-17 -325 c-16 -308 -31 -553 -35 -575 -7 -32 1 -36 62 -34 62 2 118 17 118 31
0 4 -16 10 -35 14 -19 3 -37 9 -39 13 -2 3 0 29 4 56 29 192 62 399 79 505 12
69 21 128 21 133 0 4 6 7 13 7 10 0 22 -50 42 -177 15 -98 38 -243 51 -323 13
-80 24 -159 24 -177 0 -29 -4 -33 -35 -39 -71 -13 -35 -33 74 -41 l73 -6 -5
44 c-2 24 -15 235 -28 469 l-23 426 28 179 c16 99 39 216 51 260 42 147 125
545 125 598 0 14 -9 17 -50 17 -27 0 -50 -3 -50 -6 0 -17 -76 -295 -107 -390
-31 -98 -39 -112 -64 -121 -35 -13 -35 -11 -7 28 45 60 19 199 -44 243 -41 29
-102 17 -140 -26 -16 -19 -38 -98 -38 -139 0 -29 28 -90 48 -105 26 -20 1 -17
-33 4 -25 16 -35 34 -62 123 -40 131 -66 224 -88 317 l-17 72 -49 0 c-47 0
-49 -1 -49 -27z"/>
<path d="M3170 3323 c0 -50 76 -417 115 -558 14 -49 39 -171 56 -270 35 -203
36 -245 14 -585 -7 -124 -17 -288 -21 -365 -3 -77 -10 -150 -15 -162 -7 -19
-4 -24 16 -29 25 -6 124 3 152 13 23 9 14 21 -22 27 -27 5 -35 12 -35 29 -1
12 23 172 52 355 37 238 56 332 65 332 7 0 13 -3 13 -7 0 -5 25 -161 54 -348
30 -187 52 -343 50 -347 -3 -5 -14 -8 -25 -8 -27 0 -25 -36 4 -44 32 -8 127
-7 127 2 0 4 -9 151 -19 327 -37 606 -37 585 -1 800 17 105 43 231 57 280 30
103 123 556 116 568 -2 4 -26 7 -52 7 l-47 0 -13 -52 c-19 -79 -47 -178 -88
-317 -33 -108 -41 -126 -67 -142 -39 -24 -46 -16 -15 17 21 22 24 35 24 92 -1
79 -22 130 -64 155 -44 26 -85 22 -125 -14 -58 -51 -71 -174 -25 -233 26 -33
24 -39 -10 -22 -15 8 -33 28 -39 43 -26 69 -102 338 -126 446 -6 25 -10 27
-56 27 -41 0 -50 -3 -50 -17z"/>
<path d="M4350 3327 c0 -33 75 -396 115 -557 49 -200 94 -481 89 -555 -2 -27
-13 -219 -24 -425 -12 -206 -25 -387 -30 -402 -8 -24 -6 -29 15 -34 12 -3 42
-4 66 -2 48 4 61 24 34 52 -9 9 -14 20 -11 24 3 5 23 127 46 273 57 364 64
402 77 406 11 4 22 -49 67 -337 14 -85 32 -204 42 -263 17 -105 17 -108 -2
-122 -27 -21 -6 -32 62 -33 45 0 56 4 65 20 7 13 7 18 1 14 -12 -7 -19 48 -27
219 -2 66 -12 244 -21 395 l-17 275 32 194 c17 107 45 242 61 300 30 107 65
270 95 436 9 50 19 100 22 113 5 21 2 22 -49 22 l-54 0 -23 -97 c-28 -118 -97
-351 -111 -376 -6 -10 -8 -21 -6 -26 3 -4 -10 -13 -29 -18 -27 -9 -33 -8 -28
3 3 8 9 14 13 14 17 0 32 74 27 125 -7 67 -29 111 -67 130 -62 32 -116 13
-149 -53 -39 -78 -35 -158 12 -209 23 -26 19 -28 -18 -11 -15 6 -32 26 -39 42
-18 44 -74 232 -106 361 l-28 110 -51 3 c-39 2 -51 0 -51 -11z"/>
<path d="M5530 3333 c1 -47 115 -586 131 -614 5 -9 24 -111 43 -227 l35 -210
-19 -368 c-11 -203 -24 -409 -29 -459 -5 -49 -7 -93 -4 -97 6 -11 92 -10 136
3 42 11 41 24 -3 34 -19 4 -30 13 -30 23 0 9 23 156 50 327 28 170 50 319 50
331 0 23 16 41 27 30 3 -3 19 -86 34 -183 57 -360 68 -429 75 -475 l6 -47 -36
-6 c-20 -4 -36 -11 -36 -16 0 -13 60 -26 120 -25 52 1 55 2 53 26 -6 89 -26
415 -38 635 l-15 260 25 160 c27 168 40 231 80 384 21 80 79 361 100 484 l6
37 -53 0 -53 0 -33 -133 c-17 -72 -48 -182 -67 -244 -29 -91 -41 -116 -64
-132 -40 -29 -45 -26 -19 9 49 66 28 213 -36 255 -34 22 -99 15 -131 -15 -49
-46 -61 -174 -21 -232 19 -28 20 -35 7 -31 -9 2 -23 10 -32 16 -20 15 -78 192
-122 374 l-32 133 -52 0 c-29 0 -53 -3 -53 -7z"/>
<path d="M6710 3336 c0 -26 78 -404 106 -511 45 -174 49 -193 80 -392 24 -154
24 -171 15 -335 -6 -95 -15 -270 -21 -388 -6 -118 -15 -244 -19 -280 -5 -36
-7 -68 -4 -72 12 -21 173 2 173 24 0 4 -3 7 -7 6 -18 -3 -63 15 -63 26 0 27
109 689 115 694 13 13 23 -18 38 -118 9 -58 30 -190 46 -295 17 -104 33 -213
37 -241 l6 -51 -36 -7 c-20 -4 -36 -11 -36 -16 0 -11 89 -30 141 -30 l40 0 -6
43 c-8 60 -54 884 -49 905 1 9 15 91 29 182 15 91 44 233 65 315 34 131 84
372 105 503 l7 43 -53 -3 c-53 -3 -53 -3 -62 -43 -40 -180 -122 -446 -144
-462 -33 -25 -43 -15 -22 22 40 68 23 183 -34 231 -26 22 -38 25 -74 21 -55
-6 -78 -27 -99 -89 -21 -63 -15 -139 14 -178 18 -24 19 -27 4 -23 -9 2 -24 10
-33 16 -22 17 -102 277 -141 460 l-11 47 -53 0 c-30 0 -54 -2 -54 -4z"/>
<path d="M7893 3318 c3 -13 17 -81 31 -153 41 -208 55 -272 91 -410 19 -71 39
-166 45 -210 6 -44 18 -118 27 -165 15 -82 14 -244 -3 -455 -2 -33 -11 -166
-19 -295 -8 -129 -15 -244 -17 -255 -3 -18 3 -20 58 -21 33 0 76 5 95 12 l34
12 -28 11 c-16 6 -35 11 -43 11 -8 0 -14 1 -14 3 0 5 59 380 86 546 13 85 27
157 29 160 3 2 9 0 14 -5 9 -9 111 -631 111 -677 0 -18 -7 -26 -31 -33 -17 -5
-30 -13 -30 -19 1 -11 12 -14 94 -21 70 -7 89 4 76 44 -9 27 -49 702 -50 842
-1 90 41 353 81 505 49 189 120 533 120 582 0 18 -99 18 -104 1 -2 -7 -16 -67
-32 -132 -16 -66 -47 -173 -69 -240 -37 -113 -42 -121 -73 -133 l-34 -14 25
33 c34 45 40 81 26 146 -21 101 -92 147 -168 107 -58 -29 -88 -153 -56 -225
10 -22 22 -40 27 -40 4 0 8 -4 8 -9 0 -19 -60 14 -69 39 -16 38 -87 284 -113
388 l-23 92 -53 0 c-51 0 -54 -1 -49 -22z"/>
<path d="M9084 3288 c13 -96 77 -401 107 -508 16 -58 43 -188 60 -290 29 -173
31 -196 25 -345 -8 -186 -33 -629 -41 -727 l-6 -68 53 1 c63 1 100 10 105 26
2 6 -6 15 -19 18 -13 4 -26 12 -29 17 -3 4 4 70 16 146 12 75 37 230 55 345
24 153 36 207 46 207 8 0 14 -4 14 -9 0 -5 22 -148 49 -318 60 -376 60 -375
41 -379 -8 -2 -28 -7 -45 -12 l-30 -9 30 -13 c17 -7 59 -13 95 -14 l65 -1 -2
50 c-4 96 -23 452 -34 630 -6 99 -9 211 -6 250 8 118 47 343 83 475 36 136
114 513 114 555 0 23 -3 25 -49 25 l-48 0 -18 -72 c-25 -109 -105 -379 -120
-409 -8 -14 -25 -30 -39 -37 -31 -14 -32 -10 -5 27 63 86 2 261 -93 261 -73 0
-122 -68 -123 -171 0 -44 5 -64 23 -88 27 -37 27 -41 3 -34 -24 6 -46 31 -54
58 -3 11 -21 72 -40 135 -31 100 -58 202 -81 303 -6 25 -10 27 -57 27 l-52 0
7 -52z"/>
<path d="M10265 3293 c15 -110 59 -319 100 -483 45 -179 109 -537 101 -561 -3
-8 -10 -115 -16 -239 -16 -329 -29 -558 -36 -612 l-6 -48 55 0 c64 0 117 16
117 36 0 8 -3 13 -7 13 -34 -6 -53 3 -53 24 0 12 23 172 52 355 37 233 56 332
65 332 7 0 13 -3 13 -7 0 -3 11 -74 25 -157 13 -83 36 -225 50 -316 14 -91 28
-180 31 -197 5 -32 -3 -39 -37 -35 -4 1 -5 -7 -2 -17 6 -23 23 -28 93 -27 49
1 55 3 52 21 -8 52 -13 122 -27 398 -8 164 -18 348 -21 410 -5 97 -2 136 25
295 17 100 49 251 71 335 21 84 51 215 65 292 14 77 30 159 34 182 5 23 6 45
3 48 -3 3 -26 5 -52 5 l-46 0 -32 -127 c-18 -71 -49 -183 -70 -250 -34 -112
-39 -123 -69 -137 -18 -9 -33 -11 -33 -6 0 6 4 10 8 10 5 0 17 18 27 40 22 48
15 137 -15 185 -36 59 -108 72 -159 30 -56 -48 -75 -178 -33 -234 29 -40 28
-45 -6 -27 -35 18 -70 114 -140 386 -11 41 -23 87 -26 103 -6 25 -10 27 -57
27 l-51 0 7 -47z"/>
<path d="M11445 3298 c19 -116 80 -405 110 -522 19 -73 48 -214 64 -315 l31
-184 -20 -346 c-11 -190 -24 -395 -29 -456 -5 -60 -7 -113 -4 -118 6 -10 143
-6 143 5 0 4 10 8 21 8 18 0 19 2 9 15 -7 8 -25 15 -41 15 -36 0 -36 6 -10
161 11 63 34 209 52 324 30 197 40 237 55 223 7 -7 114 -663 114 -700 0 -4 -8
-8 -17 -8 -10 -1 -29 -7 -42 -14 -24 -13 -23 -14 30 -26 30 -6 72 -10 94 -8
33 2 40 6 38 23 -10 89 -44 729 -45 840 -1 118 4 167 30 310 18 94 43 211 57
260 23 81 83 367 100 470 3 22 9 50 12 63 5 21 2 22 -49 22 l-54 0 -17 -75
c-9 -42 -40 -155 -68 -251 -50 -167 -54 -176 -83 -188 -39 -16 -43 -13 -17 13
37 37 40 145 6 211 -18 35 -62 60 -106 60 -87 0 -144 -167 -89 -257 20 -33 16
-39 -15 -27 -27 11 -52 83 -124 364 l-38 145 -52 3 -53 3 7 -43z"/>
<path d="M3601 1384 c0 -11 3 -14 6 -6 3 7 2 16 -1 19 -3 4 -6 -2 -5 -13z"/>
<path d="M4640 1392 c0 -4 4 -14 10 -22 8 -12 10 -12 16 3 8 22 25 12 17 -11
-5 -14 -3 -15 8 -4 10 9 10 15 1 24 -14 14 -52 21 -52 10z"/>
<path d="M10640 1391 c0 -5 5 -13 10 -16 6 -3 10 -2 10 4 0 5 -4 13 -10 16 -5
3 -10 2 -10 -4z"/>
<path d="M10677 1391 c6 -7 9 -21 5 -30 -5 -14 -4 -14 11 -2 10 8 16 14 15 15
-2 1 -12 8 -23 16 -14 10 -17 10 -8 1z"/>
<path d="M4762 1379 c2 -6 8 -10 13 -10 5 0 11 4 13 10 2 6 -4 11 -13 11 -9 0
-15 -5 -13 -11z"/>
</g>
</svg>
