<?xml version="1.0" standalone="no"?>
<!DOCTYPE svg PUBLIC "-//W3C//DTD SVG 20010904//EN"
 "http://www.w3.org/TR/2001/REC-SVG-20010904/DTD/svg10.dtd">
<svg version="1.0" xmlns="http://www.w3.org/2000/svg"
 width="1920.000000pt" height="700.000000pt" viewBox="0 0 1920.000000 700.000000"
 preserveAspectRatio="xMidYMid meet">
<metadata>
Created by potrace 1.15, written by Peter Selinger 2001-2017
</metadata>
<g transform="translate(0.000000,700.000000) scale(0.100000,-0.100000)"
fill="#000000" stroke="none">
<path d="M0 3500 l0 -3500 9600 0 9600 0 0 3500 0 3500 -9600 0 -9600 0 0
-3500z m7025 1015 c117 -31 200 -95 247 -191 l21 -42 81 83 c48 49 102 93 133
109 189 95 414 68 542 -63 59 -61 94 -125 125 -234 40 -137 46 -258 46 -904
l0 -603 -244 0 -244 0 -5 623 c-4 543 -6 630 -21 682 -21 73 -38 100 -79 125
-38 23 -85 25 -131 6 -45 -19 -73 -50 -105 -116 l-26 -55 -3 -632 -3 -633
-244 0 -244 0 -3 653 c-3 603 -4 655 -21 692 -37 83 -93 115 -173 101 -48 -9
-107 -65 -135 -129 l-24 -52 -3 -632 -3 -633 -244 0 -245 0 0 915 0 915 218
-2 217 -3 6 -105 c3 -58 6 -100 7 -93 4 24 126 134 186 168 113 63 249 81 371
50z m3568 -18 c66 -30 119 -76 163 -141 l34 -51 0 93 0 92 220 0 220 0 0 -83
c0 -75 -3 -88 -30 -131 -113 -177 -167 -374 -177 -641 -12 -309 50 -577 173
-747 l36 -50 -11 -135 c-33 -390 -139 -578 -394 -698 -84 -40 -160 -61 -271
-75 -93 -12 -606 -14 -606 -2 0 4 29 90 66 192 l66 185 197 0 c162 0 205 3
247 18 143 50 214 194 214 437 l0 100 -62 -63 c-71 -72 -139 -104 -242 -114
-303 -27 -536 245 -586 686 -22 193 -5 452 40 619 51 187 181 388 298 460 48
29 143 67 192 76 56 10 161 -3 213 -27z m1280 0 c66 -30 119 -76 163 -141 l34
-51 0 93 0 92 221 0 220 0 -4 -922 c-3 -821 -5 -933 -20 -1017 -43 -235 -126
-384 -270 -484 -170 -119 -324 -150 -718 -145 l-236 3 70 193 70 193 171 -3
c194 -3 254 9 319 62 85 71 117 164 124 360 l5 145 -30 -41 c-113 -154 -323
-196 -518 -103 -175 83 -309 333 -343 642 -53 477 88 917 346 1080 38 24 137
62 183 71 56 10 161 -3 213 -27z m-6103 -917 l0 -920 -245 0 -245 0 0 750 0
750 160 0 160 0 0 170 0 170 85 0 85 0 0 -920z m3588 896 c168 -43 261 -130
309 -292 16 -53 18 -133 23 -787 l5 -727 -222 0 -223 0 0 88 0 88 -67 -66
c-110 -107 -217 -147 -376 -137 -120 6 -209 49 -295 142 -103 109 -152 243
-152 415 0 390 279 642 758 685 l72 7 0 58 c0 73 -11 104 -47 127 -24 16 -61
19 -354 23 l-327 5 69 185 c38 102 71 191 74 199 8 21 665 10 753 -13z m4192
14 c271 -29 393 -141 430 -395 5 -42 10 -345 10 -747 l0 -678 -220 0 -220 0 0
89 0 89 -63 -63 c-66 -66 -127 -102 -216 -129 -61 -18 -174 -21 -240 -5 -127
29 -244 125 -305 250 -50 104 -66 175 -66 299 0 197 47 318 175 446 141 143
320 216 578 239 l77 7 0 56 c0 80 -24 123 -75 139 -27 8 -141 12 -347 12 -170
1 -308 3 -308 5 0 5 141 380 146 388 7 12 532 9 644 -2z m-8030 -130 l0 -130
-120 0 -120 0 0 130 0 130 120 0 120 0 0 -130z"/>
<path d="M10520 4138 c-126 -35 -189 -188 -197 -483 -8 -256 26 -411 110 -502
72 -78 161 -82 233 -9 72 71 76 99 72 493 -3 328 -4 339 -26 388 -28 61 -65
101 -101 110 -14 3 -33 8 -41 9 -8 2 -31 0 -50 -6z"/>
<path d="M11797 4138 c-77 -20 -138 -109 -174 -253 -14 -55 -17 -113 -18 -275
0 -183 3 -213 23 -283 28 -98 51 -143 94 -184 73 -69 165 -66 232 7 63 70 68
104 64 487 -3 331 -3 339 -27 391 -25 56 -80 112 -111 112 -10 0 -24 2 -32 4
-7 2 -30 -1 -51 -6z"/>
<path d="M9135 3560 c-135 -18 -238 -82 -281 -174 -19 -40 -24 -68 -24 -130 0
-98 14 -145 57 -196 84 -98 228 -65 299 70 16 30 19 63 22 238 2 111 0 201 -5
201 -4 -1 -35 -5 -68 -9z"/>
<path d="M13460 3564 c-134 -20 -206 -51 -267 -116 -51 -57 -68 -104 -68 -198
0 -91 16 -140 62 -191 45 -49 94 -64 159 -48 58 15 125 77 145 135 17 47 20
416 4 419 -5 1 -21 1 -35 -1z"/>
</g>
</svg>
