<?xml version="1.0" standalone="no"?>
<!DOCTYPE svg PUBLIC "-//W3C//DTD SVG 20010904//EN"
 "http://www.w3.org/TR/2001/REC-SVG-20010904/DTD/svg10.dtd">
<svg version="1.0" xmlns="http://www.w3.org/2000/svg"
 width="1484.000000pt" height="893.000000pt" viewBox="0 0 1484.000000 893.000000"
 preserveAspectRatio="xMidYMid meet">
<metadata>
Created by potrace 1.15, written by Peter Selinger 2001-2017
</metadata>
<g transform="translate(0.000000,893.000000) scale(0.100000,-0.100000)"
fill="#000000" stroke="none">
<path d="M64 6153 c3 -1501 9 -3395 12 -4210 l7 -1483 313 0 314 0 0 -230 0
-230 254 0 255 0 -6 230 -6 230 1741 0 1742 0 0 -132 c0 -73 3 -177 7 -230 l6
-98 224 0 223 0 0 230 0 230 1753 -2 1752 -3 3 -228 2 -227 225 0 225 0 2 227
3 228 1738 3 1737 2 0 -230 0 -230 250 0 250 0 1 43 c1 23 2 49 3 57 2 8 3 93
4 188 l2 172 139 0 139 0 6 -63 c3 -34 8 -137 12 -229 l7 -168 43 0 c44 0 44
0 42 32 -1 18 -7 36 -13 40 -5 4 164 8 378 8 l387 0 0 -40 0 -40 45 0 c41 0
45 2 45 24 0 13 -11 228 -25 478 -14 249 -36 669 -50 933 -23 439 -36 684 -65
1205 -53 974 -71 1304 -68 1315 3 14 147 -142 178 -193 11 -18 29 -36 39 -40
33 -13 109 -107 147 -183 42 -83 66 -114 106 -135 51 -27 122 -12 178 37 20
17 25 30 24 68 -1 61 -21 97 -103 184 -37 40 -71 80 -74 90 -4 9 -13 17 -22
17 -10 0 -15 10 -15 29 0 16 -7 46 -16 67 -33 81 -88 191 -115 231 -16 22 -44
75 -63 116 -46 101 -92 170 -162 243 -46 48 -69 84 -105 165 l-47 104 -11 215
c-22 404 -41 745 -51 905 -15 238 -17 222 30 241 24 10 40 23 40 33 0 9 3 27
6 41 l6 25 -19 -28 c-11 -15 -22 -25 -25 -21 -3 3 -28 -18 -54 -46 -70 -75
-119 -101 -168 -90 -52 12 -86 47 -93 97 -6 48 7 59 83 70 56 7 100 39 83 60
-14 16 -4 45 13 41 7 -1 27 3 43 10 l30 12 -7 133 c-4 72 -14 267 -23 432 -8
165 -17 332 -20 370 -2 39 -7 127 -11 198 -6 126 -7 127 -32 134 -49 12 -55
-12 -48 -204 l6 -173 -50 0 -50 0 0 835 0 835 -6846 0 -6847 0 7 -2727z m584
2539 c-7 -10 -1 -7 13 6 l26 22 6435 -2 c3540 -2 6440 -7 6445 -11 4 -5 9
-343 11 -752 l3 -744 -146 -3 -146 -3 5 70 c3 39 2 55 -2 36 -9 -45 -48 -73
-110 -79 -47 -4 -52 -2 -81 29 -17 19 -31 42 -31 52 0 9 -3 17 -8 17 -4 0 -13
15 -21 33 -24 55 -61 95 -92 102 -17 4 -33 13 -36 20 -2 8 -12 11 -20 8 -13
-5 -14 -3 -3 18 12 23 11 23 -5 7 -29 -27 -64 -145 -55 -179 5 -16 6 -45 3
-64 -3 -19 0 -65 8 -102 7 -37 12 -76 10 -85 -1 -10 3 -26 9 -38 9 -16 21 -20
65 -20 29 0 57 -5 61 -11 14 -24 -19 -33 -119 -35 -85 -1 -117 -6 -195 -32
-51 -17 -140 -40 -198 -51 -109 -21 -204 -64 -224 -101 -6 -10 -13 -43 -18
-72 -7 -49 -10 -53 -35 -56 -27 -3 -27 -4 -10 -17 13 -10 20 -10 25 -2 5 8 8
7 8 -4 0 -10 -17 -23 -44 -33 -42 -16 -47 -16 -83 0 -38 18 -38 18 -10 22 32
4 36 22 5 22 -13 0 -36 7 -52 15 -15 8 -35 15 -42 15 -22 0 -158 73 -196 105
-35 30 -130 78 -163 82 -11 2 -59 6 -107 9 -49 3 -88 10 -88 14 0 5 -16 7 -35
4 -33 -4 -35 -3 -33 23 2 16 -1 29 -7 30 -6 1 -9 -18 -8 -47 1 -51 32 -110 58
-110 7 0 15 -7 19 -15 3 -8 16 -15 29 -15 27 0 1 56 284 -595 94 -214 173
-400 177 -412 8 -26 33 -30 60 -10 17 13 17 15 2 45 -9 18 -92 206 -185 419
-93 214 -187 429 -209 478 -59 134 -58 131 -21 150 30 16 33 16 60 -4 15 -12
32 -21 36 -21 4 0 37 -25 72 -55 85 -72 207 -144 303 -179 66 -24 85 -27 138
-21 44 5 65 4 70 -5 12 -20 81 -30 220 -30 100 0 145 -4 177 -16 43 -17 43
-17 73 -113 16 -53 36 -129 45 -169 8 -40 22 -86 31 -103 12 -25 13 -40 5 -78
-7 -33 -7 -60 0 -85 6 -21 7 -50 4 -66 -4 -17 -1 -39 6 -52 9 -16 12 -68 11
-181 -2 -167 7 -193 29 -83 8 45 22 75 44 102 l31 37 94 3 c99 3 147 -9 118
-30 -32 -24 -40 -58 -40 -169 0 -60 3 -111 6 -114 2 -3 -7 -35 -20 -71 -20
-53 -25 -82 -23 -146 3 -110 -19 -223 -50 -258 -28 -32 -41 -35 -41 -10 0 9
-9 28 -20 42 -11 14 -20 40 -20 58 0 18 -14 57 -30 87 -16 30 -30 64 -30 77 0
13 -5 30 -10 38 -8 12 -10 10 -10 -8 0 -30 61 -264 105 -401 49 -155 92 -301
100 -341 4 -19 20 -59 36 -88 27 -50 36 -87 74 -287 9 -49 24 -112 34 -140 10
-27 19 -81 20 -120 1 -38 6 -151 11 -250 6 -99 19 -378 30 -620 28 -607 58
-1233 70 -1460 16 -292 40 -804 40 -857 l0 -46 -1845 -1 c-1133 0 -1845 3
-1845 9 0 5 -11 5 -27 -1 -22 -7 -8947 -9 -9334 -1 l-66 1 -7 803 c-3 442 -9
2228 -12 3971 l-7 3167 24 0 c32 0 45 11 44 35 0 11 8 21 20 25 14 3 20 13 20
33 -1 16 6 32 15 37 11 7 8 10 -15 12 -16 1 47 5 140 8 94 3 174 3 178 2 4 -2
2 -11 -5 -20z m12506 -1521 c3 -5 22 -8 41 -6 19 2 35 -1 35 -6 0 -5 9 -18 20
-29 18 -18 33 -20 176 -20 l155 0 -2 -85 c-3 -73 -5 -85 -20 -85 -34 0 -73 21
-104 57 l-31 36 -166 1 c-111 1 -171 5 -179 13 -14 14 14 118 34 126 20 9 35
8 41 -2z m706 -96 c0 -38 16 -328 25 -457 l5 -78 -29 0 c-28 0 -29 2 -45 78
-9 42 -28 112 -41 155 -21 67 -25 98 -25 208 l0 129 55 0 55 0 0 -35z m-503
-280 c128 -38 195 -136 151 -222 -38 -76 -120 -113 -246 -113 -66 0 -115 18
-181 67 -59 45 -80 137 -41 186 22 27 97 75 139 87 43 13 124 11 178 -5z
m-1776 -125 c22 -52 54 -123 69 -157 23 -48 132 -300 230 -528 5 -11 21 -47
35 -80 50 -111 55 -125 48 -125 -5 0 -20 29 -35 63 -15 34 -63 143 -107 242
-148 337 -301 694 -301 702 0 15 20 -23 61 -117z m2339 -748 l0 -53 -87 3 -88
3 -3 50 -3 50 91 0 90 0 0 -53z m4 -161 c5 -7 36 -491 36 -558 0 -18 -6 -23
-25 -23 -21 0 -31 13 -67 83 -23 45 -61 127 -85 182 -42 97 -43 103 -43 206 0
58 3 109 7 112 10 10 171 8 177 -2z m-496 -712 c9 -17 45 -71 80 -120 l62 -88
-2 -173 -3 -173 -51 -3 -51 -3 -17 88 c-9 48 -23 137 -32 196 -13 92 -45 227
-69 290 -6 14 -1 17 29 17 31 0 40 -5 54 -31z m441 -706 c12 -27 51 -91 87
-143 l64 -95 6 -152 7 -153 -70 0 c-38 0 -104 -3 -146 -6 l-77 -7 0 302 0 301
53 0 53 0 23 -47z m171 -655 c9 -138 30 -517 30 -550 l0 -48 -163 0 -163 0 -2
300 -2 300 150 0 c82 0 150 -1 150 -2z m-664 -178 c61 -149 76 -203 65 -233
-8 -24 -7 -28 5 -23 18 7 6 -18 -23 -49 -34 -37 -53 -69 -53 -92 0 -13 -6 -23
-14 -23 -11 0 -15 32 -20 158 -3 86 -8 209 -11 272 -5 128 -6 128 51 -10z
m151 -526 l30 -6 6 -101 c3 -56 3 -193 0 -305 l-6 -203 -90 3 -90 3 -4 85 c-2
47 -8 171 -13 277 -14 269 -18 241 38 246 91 7 100 7 129 1z m542 -3 c8 -5 41
-466 41 -576 l0 -35 -185 0 -185 0 0 310 0 310 160 -2 c88 -1 164 -4 169 -7z
m-509 -1021 l0 -311 -72 3 -73 3 -11 210 c-7 116 -14 254 -16 308 l-5 97 88 0
89 0 0 -310z m560 283 c0 -16 7 -140 15 -278 8 -137 15 -265 15 -282 l0 -33
-210 0 -210 0 0 303 c0 167 3 307 7 310 3 4 91 7 195 7 l188 0 0 -27z m-561
-980 c-1 -159 -4 -299 -8 -313 -6 -20 -14 -25 -48 -28 -24 -2 -44 2 -48 8 -7
11 -33 461 -35 578 l0 42 70 0 70 0 -1 -287z m601 250 c0 -21 7 -148 15 -283
8 -135 15 -260 15 -277 l0 -33 -230 0 -230 0 0 315 0 315 215 0 215 0 0 -37z
m40 -725 c0 -18 7 -148 15 -288 8 -140 15 -267 15 -282 l0 -28 -375 0 -375 0
-1 63 c0 34 -4 95 -8 135 l-7 72 133 0 133 0 0 180 0 180 235 0 235 0 0 -32z
m-645 -6 c3 -16 5 -59 3 -95 l-2 -67 -49 0 -48 0 2 95 2 95 42 0 c39 0 44 -3
50 -28z"/>
<path d="M11064 8394 c3 -8 1 -14 -4 -14 -6 0 -10 6 -10 13 0 6 -5 4 -11 -6
-8 -13 -18 -17 -35 -13 -19 5 -22 3 -17 -11 4 -11 3 -14 -5 -9 -7 4 -12 1 -13
-6 0 -7 -3 -5 -7 4 -7 16 -10 16 -34 -7 -16 -14 -33 -22 -42 -19 -9 3 -16 1
-16 -5 0 -7 -10 -15 -22 -20 -17 -6 -25 -4 -30 8 -6 14 -7 14 -7 -1 -1 -10 -7
-17 -13 -15 -7 1 -12 -4 -10 -11 2 -9 -4 -12 -16 -8 -23 8 -54 -3 -46 -15 3
-5 -7 -4 -22 1 -15 6 -29 8 -32 5 -3 -3 1 -5 9 -5 23 0 -24 -26 -50 -28 -13 0
-28 -6 -32 -13 -4 -8 -15 4 -29 32 -19 40 -21 41 -16 12 4 -24 0 -34 -17 -46
-13 -8 -18 -18 -13 -23 5 -5 11 -4 13 4 7 20 29 14 41 -12 l11 -24 188 70
c351 129 374 139 371 156 -2 12 -15 17 -46 18 -33 1 -42 -2 -38 -12z"/>
<path d="M10966 8043 c-9 -9 -7 -48 3 -58 17 -19 152 -340 148 -355 -2 -8 9
-40 24 -70 15 -30 78 -170 139 -310 61 -140 113 -256 114 -257 1 -1 7 2 14 6
10 6 7 20 -12 62 -184 411 -238 541 -225 537 9 -3 52 -100 244 -545 14 -33 29
-41 40 -23 3 6 2 10 -3 10 -5 0 -16 15 -25 33 -17 37 -224 520 -238 555 -5 14
-16 22 -26 20 -11 -2 -17 2 -15 11 1 7 -29 86 -68 176 -38 89 -70 170 -70 178
0 18 -33 40 -44 30z"/>
<path d="M7428 6420 c-131 -39 -160 -161 -54 -221 32 -18 61 -24 128 -27 76
-4 92 -1 141 21 59 27 87 63 87 113 0 36 -64 99 -115 113 -46 13 -147 13 -187
1z"/>
<path d="M1310 6275 l0 -125 40 0 c22 0 40 -3 40 -7 0 -5 -43 -127 -95 -272
-52 -145 -95 -265 -95 -267 0 -2 -18 -4 -40 -4 l-40 0 0 -125 0 -125 210 0
210 0 0 114 c0 122 -2 126 -56 126 -28 0 -29 8 -5 75 l18 50 135 3 135 3 16
-61 c9 -33 17 -62 17 -64 0 -3 -19 -6 -42 -8 l-43 -3 -3 -117 -3 -118 281 0
280 0 0 124 0 125 -41 3 -41 3 -98 267 c-53 147 -95 270 -92 273 3 3 20 5 39
5 l33 0 0 125 0 125 -380 0 -380 0 0 -125z m369 -280 c18 -60 34 -118 37 -127
5 -16 -4 -18 -85 -18 l-90 0 46 136 c25 75 48 132 52 127 4 -4 22 -57 40 -118z"/>
<path d="M2900 6285 l0 -115 45 0 45 0 0 -60 c0 -33 -1 -60 -2 -60 -2 0 -28
10 -58 22 -46 19 -74 22 -175 22 -153 0 -212 -20 -296 -103 -80 -79 -103 -142
-103 -281 -1 -93 2 -111 25 -161 35 -74 88 -124 177 -167 63 -30 86 -35 165
-39 87 -4 181 12 250 42 13 5 17 2 17 -14 0 -21 3 -21 240 -21 l240 0 0 115 0
115 -45 0 -45 0 0 410 0 410 -240 0 -240 0 0 -115z m36 -420 c52 -36 72 -168
38 -241 -46 -97 -195 -81 -224 24 -24 87 -1 190 49 217 34 19 111 19 137 0z"/>
<path d="M6803 6291 l-183 -86 0 -57 0 -58 -45 0 -45 0 0 -110 c0 -60 -1 -113
-2 -117 -2 -5 18 -9 44 -11 l46 -3 4 -172 c4 -193 13 -224 82 -285 77 -67 245
-81 386 -30 l65 23 3 111 3 112 -63 -5 c-50 -4 -66 -2 -76 10 -8 10 -16 59
-19 126 l-6 110 79 3 79 3 3 118 3 117 -81 0 -80 0 0 145 c0 80 -3 145 -7 144
-5 -1 -90 -40 -190 -88z"/>
<path d="M4916 6095 c-282 -72 -413 -359 -264 -581 75 -112 209 -171 403 -181
166 -8 284 21 379 94 46 36 97 105 86 117 -3 3 -73 13 -155 22 l-149 17 -20
-25 c-28 -34 -57 -48 -100 -48 -74 0 -112 37 -125 121 l-8 49 288 0 c158 0
290 3 292 8 3 4 1 33 -4 64 -27 169 -107 266 -266 325 -87 32 -265 41 -357 18z
m225 -183 c26 -23 33 -38 37 -80 l5 -52 -107 0 -106 0 0 30 c0 109 98 167 171
102z"/>
<path d="M9186 6094 c-135 -33 -254 -130 -296 -242 -27 -70 -29 -195 -6 -261
61 -167 237 -261 494 -261 166 0 301 53 380 149 23 28 42 56 42 60 0 5 -70 16
-157 26 l-156 18 -21 -25 c-29 -35 -57 -48 -105 -48 -68 0 -121 64 -121 148
l0 22 284 0 c157 0 287 4 290 9 10 15 -15 136 -39 188 -67 148 -231 234 -441
232 -49 0 -115 -7 -148 -15z m207 -165 c32 -14 55 -55 60 -107 l4 -42 -108 0
-109 0 0 28 c1 36 34 107 57 121 24 14 66 14 96 0z"/>
<path d="M6319 6093 c-50 -8 -133 -66 -164 -115 -16 -26 -33 -47 -37 -47 -5
-1 -8 35 -8 79 l0 80 -230 0 -230 0 0 -115 0 -115 50 0 50 0 0 -140 0 -140
-50 0 -50 0 0 -115 0 -115 300 0 300 0 0 115 0 115 -55 0 c-53 0 -55 1 -55 28
0 15 9 46 20 70 26 58 95 90 209 99 l81 6 0 158 0 159 -52 -1 c-29 -1 -65 -4
-79 -6z"/>
<path d="M8104 6089 c-63 -15 -145 -69 -166 -111 -11 -20 -22 -61 -25 -91 -15
-146 65 -209 367 -287 145 -37 160 -44 160 -70 0 -27 -30 -40 -90 -40 -56 0
-107 18 -156 55 -30 23 -41 25 -148 25 l-116 0 0 -115 0 -115 120 0 c116 0
120 1 120 21 0 17 4 20 23 15 118 -34 147 -38 238 -34 76 4 107 10 155 32 105
48 144 104 144 206 0 77 -17 118 -66 158 -52 43 -120 68 -303 109 -85 18 -158
36 -163 39 -4 3 -8 14 -8 24 0 57 148 53 234 -5 34 -23 46 -25 146 -25 l110 0
0 105 0 105 -120 0 c-107 0 -119 -2 -113 -17 5 -13 2 -15 -18 -9 -106 30 -143
36 -209 35 -41 -1 -93 -5 -116 -10z"/>
<path d="M3530 5975 l0 -115 34 0 c39 0 39 1 124 -160 33 -63 90 -169 125
-235 l65 -120 155 -3 155 -2 137 260 137 260 34 0 34 0 0 115 0 115 -190 0
-190 0 0 -115 0 -115 29 0 c17 0 32 -3 34 -7 2 -5 -24 -68 -58 -141 l-63 -132
-51 117 c-71 162 -72 163 -27 163 l36 0 0 115 0 115 -260 0 -260 0 0 -115z"/>
<path d="M7269 6028 c-1 -35 -2 -87 -3 -115 l-1 -53 38 0 37 0 0 -140 0 -140
-37 0 -38 0 0 -115 0 -115 263 0 262 0 0 115 0 115 -30 0 -30 0 0 255 0 255
-230 0 -230 0 -1 -62z"/>
<path d="M1170 4405 l0 -125 40 0 40 0 -2 -272 -3 -273 -35 0 -35 0 -3 -127
-3 -128 281 0 281 0 -3 128 -3 127 -32 3 -33 3 0 85 0 84 120 0 120 0 0 -84 0
-85 -31 -3 -32 -3 -1 -125 0 -125 277 -3 277 -2 0 125 0 125 -27 1 c-16 1 -31
1 -35 0 -5 0 -9 116 -9 259 -1 143 -2 266 -3 273 -1 7 15 13 39 15 l40 3 -3
124 -3 125 -277 0 -277 0 0 -123 0 -122 33 -3 32 -3 0 -80 0 -80 -117 3 -118
3 -3 78 -3 77 36 0 35 0 0 125 0 125 -280 0 -280 0 0 -125z"/>
<path d="M5600 4398 c0 -95 8 -184 27 -310 l27 -178 133 0 c73 0 133 3 133 8
0 4 11 72 25 152 19 112 25 181 25 303 l0 157 -185 0 -185 0 0 -132z"/>
<path d="M6220 4368 c0 -128 6 -195 25 -308 14 -80 25 -146 25 -147 0 -2 58
-3 130 -3 126 0 130 1 134 23 34 156 56 338 56 460 l0 137 -185 0 -185 0 0
-162z"/>
<path d="M2848 4224 c-128 -30 -236 -114 -286 -222 -24 -50 -27 -69 -27 -157
1 -122 20 -171 97 -248 65 -64 140 -101 248 -121 224 -43 426 5 536 127 44 49
55 76 32 78 -7 0 -76 8 -153 18 l-140 17 -30 -34 c-36 -41 -92 -52 -146 -29
-38 16 -62 54 -74 120 l-7 37 291 0 291 0 0 30 c0 54 -22 135 -53 193 -49 94
-140 158 -272 192 -73 19 -229 18 -307 -1z m221 -170 c28 -20 51 -72 51 -114
l0 -30 -105 0 -105 0 0 35 c0 45 23 100 47 114 27 16 85 13 112 -5z"/>
<path d="M4778 4225 c-129 -32 -231 -109 -283 -212 -28 -53 -30 -66 -30 -163
0 -125 17 -171 91 -250 79 -84 188 -126 359 -137 169 -10 308 27 398 106 36
32 83 98 75 106 -2 3 -73 13 -157 23 l-153 18 -15 -23 c-33 -50 -107 -67 -163
-38 -35 18 -57 56 -66 114 l-7 41 289 2 289 3 -3 49 c-11 169 -105 288 -274
348 -80 28 -264 35 -350 13z m227 -179 c25 -25 50 -99 41 -122 -4 -11 -30 -14
-112 -14 l-106 0 7 43 c9 51 29 93 52 106 33 19 92 13 118 -13z"/>
<path d="M4239 4214 c-54 -16 -132 -81 -159 -133 l-19 -36 -1 88 0 87 -230 0
-230 0 0 -115 0 -115 50 0 50 0 0 -135 0 -135 -50 0 -50 0 0 -120 0 -120 300
0 301 0 -3 118 -3 117 -54 0 -53 0 5 44 c10 91 80 138 221 148 l86 6 0 158 0
159 -57 -1 c-32 0 -79 -7 -104 -15z"/>
<path d="M5600 3615 l0 -135 188 2 187 3 3 133 3 132 -191 0 -190 0 0 -135z"/>
<path d="M6210 3615 l0 -135 190 0 190 0 0 135 0 135 -190 0 -190 0 0 -135z"/>
</g>
</svg>
